<?xml version="1.0" encoding="UTF-8" standalone="no"?>
<!-- Created with Inkscape (http://www.inkscape.org/) -->

<svg
   xmlns:dc="http://purl.org/dc/elements/1.1/"
   xmlns:cc="http://creativecommons.org/ns#"
   xmlns:rdf="http://www.w3.org/1999/02/22-rdf-syntax-ns#"
   xmlns:svg="http://www.w3.org/2000/svg"
   xmlns="http://www.w3.org/2000/svg"
   xmlns:sodipodi="http://sodipodi.sourceforge.net/DTD/sodipodi-0.dtd"
   xmlns:inkscape="http://www.inkscape.org/namespaces/inkscape"
   width="6.9155345mm"
   height="4.4518752mm"
   viewBox="0 0 6.9155345 4.4518752"
   version="1.1"
   id="svg993"
   inkscape:version="0.92.3 (2405546, 2018-03-11)"
   sodipodi:docname="ungledown.svg"
   inkscape:export-filename="/home/slawa/public_html/urkr/img/ungledown.png"
   inkscape:export-xdpi="72"
   inkscape:export-ydpi="72">
  <defs
     id="defs987" />
  <sodipodi:namedview
     id="base"
     pagecolor="#ffffff"
     bordercolor="#666666"
     borderopacity="1.0"
     inkscape:pageopacity="0.0"
     inkscape:pageshadow="2"
     inkscape:zoom="21.084024"
     inkscape:cx="14.815733"
     inkscape:cy="3.897103"
     inkscape:document-units="mm"
     inkscape:current-layer="flowRoot995"
     showgrid="false"
     fit-margin-top="0"
     fit-margin-left="0"
     fit-margin-right="0"
     fit-margin-bottom="0"
     inkscape:window-width="1600"
     inkscape:window-height="875"
     inkscape:window-x="0"
     inkscape:window-y="0"
     inkscape:window-maximized="1" />
  <metadata
     id="metadata990">
    <rdf:RDF>
      <cc:Work
         rdf:about="">
        <dc:format>image/svg+xml</dc:format>
        <dc:type
           rdf:resource="http://purl.org/dc/dcmitype/StillImage" />
        <dc:title></dc:title>
      </cc:Work>
    </rdf:RDF>
  </metadata>
  <g
     inkscape:label="Layer 1"
     inkscape:groupmode="layer"
     id="layer1"
     transform="translate(-40.715863,-47.093253)">
    <g
       aria-label=""
       transform="matrix(1.1064855,0,0,1.1064855,-129.55756,-149.85036)"
       style="font-style:normal;font-variant:normal;font-weight:normal;font-stretch:normal;font-size:10px;line-height:125%;font-family:'Font Awesome 5 Free';-inkscape-font-specification:'Font Awesome 5 Free';letter-spacing:0px;word-spacing:0px;fill:#ffffff;fill-opacity:1;stroke:none;stroke-width:1px;stroke-linecap:butt;stroke-linejoin:miter;stroke-opacity:1"
       id="flowRoot995">
      <path
         d="m 156.67969,181.87695 c 0.0781,0.0977 0.19531,0.13672 0.33203,0.13672 0.11719,0 0.23437,-0.0391 0.33203,-0.13672 L 160,179.2207 c 0.0781,-0.0781 0.13672,-0.19531 0.13672,-0.33203 0,-0.11719 -0.0586,-0.23437 -0.13672,-0.33203 l -0.44922,-0.42969 c -0.0977,-0.0781 -0.21484,-0.13672 -0.33203,-0.13672 -0.13672,0 -0.25391,0.0586 -0.33203,0.13672 l -1.875,1.875 -1.875,-1.875 c -0.0977,-0.0781 -0.21485,-0.13672 -0.33203,-0.13672 -0.13672,0 -0.25391,0.0586 -0.33203,0.13672 l -0.44922,0.42969 c -0.0977,0.0977 -0.13672,0.21484 -0.13672,0.33203 0,0.13672 0.0391,0.25391 0.13672,0.33203 z"
         style=""
         id="path1808" />
    </g>
  </g>
</svg>
